name rise30.3154peak39.0474fall46.5389.mot
datacolumns 19
datarows 26
range 12.10662000000000 12.14829500000000
endheader
time	ground_force1_vx	ground_force1_vy	ground_force1_vz	ground_force1_px	ground_force1_py	ground_force1_pz	ground_force2_vx	ground_force2_vy	ground_force2_vz	ground_force2_px	ground_force2_py	ground_force2_pz	ground_torque1_x	ground_torque1_y	ground_torque1_z	ground_torque2_x	ground_torque2_y	ground_torque2_z	
12.10662000000000	-44.33199800000000	820.84282299999995	50.31289100000000	0.15625700000000	0.00000000000000	0.08293000000000	-9.11028800000000	47.08975700000000	4.89391900000000	0.38408600000000	0.00000000000000	-0.10805500000000	0.00000000000000	23.63520600000000	0.00000000000000	0.00000000000000	2.30384400000000	0.00000000000000	
12.10829700000000	-44.60136100000000	818.44519300000002	50.15225000000000	0.15545200000000	0.00000000000000	0.08284900000000	-9.96650500000000	53.83367100000000	5.44113900000000	0.38613100000000	0.00000000000000	-0.10855100000000	0.00000000000000	23.49483200000000	0.00000000000000	0.00000000000000	2.60128500000000	0.00000000000000	
12.10995700000000	-44.88140900000000	815.91050800000005	49.97068100000000	0.15464300000000	0.00000000000000	0.08276500000000	-10.69373200000000	60.50846900000000	5.93899800000000	0.38793600000000	0.00000000000000	-0.10901100000000	0.00000000000000	23.35078000000000	0.00000000000000	0.00000000000000	2.88412700000000	0.00000000000000	
12.11162200000000	-45.17298300000000	813.23870499999998	49.76779100000000	0.15383100000000	0.00000000000000	0.08267800000000	-11.27764600000000	67.04540200000000	6.37895800000000	0.38954600000000	0.00000000000000	-0.10944000000000	0.00000000000000	23.20321800000000	0.00000000000000	0.00000000000000	3.14814500000000	0.00000000000000	
12.11328800000000	-45.47685900000000	810.42973800000004	49.54322200000000	0.15301600000000	0.00000000000000	0.08258800000000	-11.71160200000000	73.40135500000000	6.75599700000000	0.39100000000000	0.00000000000000	-0.10984000000000	0.00000000000000	23.05231700000000	0.00000000000000	0.00000000000000	3.39059500000000	0.00000000000000	
12.11495600000000	-45.79374100000000	807.48357699999997	49.29665300000000	0.15219900000000	0.00000000000000	0.08249500000000	-11.99604300000000	79.55833300000000	7.06841900000000	0.39232700000000	0.00000000000000	-0.11021700000000	0.00000000000000	22.89824900000000	0.00000000000000	0.00000000000000	3.61016000000000	0.00000000000000	
12.11662300000000	-46.12426100000000	804.40020400000003	49.02780000000000	0.15138100000000	0.00000000000000	0.08239800000000	-12.13743900000000	85.52097300000000	7.31743000000000	0.39355300000000	0.00000000000000	-0.11057000000000	0.00000000000000	22.74118800000000	0.00000000000000	0.00000000000000	3.80679000000000	0.00000000000000	
12.11829400000000	-46.46897100000000	801.17960800000003	48.73641800000000	0.15056100000000	0.00000000000000	0.08229700000000	-12.14690800000000	91.31261000000001	7.50654500000000	0.39469900000000	0.00000000000000	-0.11090400000000	0.00000000000000	22.58130600000000	0.00000000000000	0.00000000000000	3.98146700000000	0.00000000000000	
12.11996100000000	-46.82834000000000	797.82178399999998	48.42230600000000	0.14974200000000	0.00000000000000	0.08219300000000	-12.03870200000000	96.97050200000000	7.64091100000000	0.39578100000000	0.00000000000000	-0.11121900000000	0.00000000000000	22.41877400000000	0.00000000000000	0.00000000000000	4.13592100000000	0.00000000000000	
12.12163200000000	-47.20275100000000	794.32672700000001	48.08530300000000	0.14892300000000	0.00000000000000	0.08208500000000	-11.82869700000000	102.54072600000001	7.72662300000000	0.39681500000000	0.00000000000000	-0.11151800000000	0.00000000000000	22.25376300000000	0.00000000000000	0.00000000000000	4.27234500000000	0.00000000000000	
12.12328700000000	-47.59249900000000	790.69443699999999	47.72529200000000	0.14810600000000	0.00000000000000	0.08197300000000	-11.53301800000000	108.07325000000000	7.77007100000000	0.39781100000000	0.00000000000000	-0.11180200000000	0.00000000000000	22.08644000000000	0.00000000000000	0.00000000000000	4.39311500000000	0.00000000000000	
12.12495500000000	-47.99778600000000	786.92490999999995	47.34220400000000	0.14729100000000	0.00000000000000	0.08185700000000	-11.16687700000000	113.61751400000000	7.77738600000000	0.39878000000000	0.00000000000000	-0.11207200000000	0.00000000000000	21.91696700000000	0.00000000000000	0.00000000000000	4.50054300000000	0.00000000000000	
12.12662600000000	-48.41871600000000	783.01814000000002	46.93601100000000	0.14648000000000	0.00000000000000	0.08173700000000	-10.74368400000000	119.21880299999999	7.75399900000000	0.39972900000000	0.00000000000000	-0.11232900000000	0.00000000000000	21.74550300000000	0.00000000000000	0.00000000000000	4.59668400000000	0.00000000000000	
12.12829300000000	-48.85530000000000	778.97411999999997	46.50673700000000	0.14567400000000	0.00000000000000	0.08161300000000	-10.27445600000000	124.91553900000000	7.70433200000000	0.40066500000000	0.00000000000000	-0.11257400000000	0.00000000000000	21.57220000000000	0.00000000000000	0.00000000000000	4.68319300000000	0.00000000000000	
12.12996000000000	-49.30744600000000	774.79284199999995	46.05445200000000	0.14487300000000	0.00000000000000	0.08148400000000	-9.76750300000000	130.73754700000001	7.63162300000000	0.40159300000000	0.00000000000000	-0.11280800000000	0.00000000000000	21.39720500000000	0.00000000000000	0.00000000000000	4.76123000000000	0.00000000000000	
12.13162600000000	-49.77496200000000	770.47429199999999	45.57927300000000	0.14407900000000	0.00000000000000	0.08135100000000	-9.22838500000000	136.70524300000000	7.53786600000000	0.40251600000000	0.00000000000000	-0.11303200000000	0.00000000000000	21.22065700000000	0.00000000000000	0.00000000000000	4.83143000000000	0.00000000000000	
12.13329300000000	-50.25755100000000	766.01845800000001	45.08136800000000	0.14329300000000	0.00000000000000	0.08121400000000	-8.66008000000000	142.82964500000000	7.42386600000000	0.40343800000000	0.00000000000000	-0.11324700000000	0.00000000000000	21.04268700000000	0.00000000000000	0.00000000000000	4.89390800000000	0.00000000000000	
12.13495500000000	-50.75481300000000	761.42532700000004	44.56095500000000	0.14251500000000	0.00000000000000	0.08107200000000	-8.06331100000000	149.11305600000000	7.28936800000000	0.40436100000000	0.00000000000000	-0.11345300000000	0.00000000000000	20.86341700000000	0.00000000000000	0.00000000000000	4.94830800000000	0.00000000000000	
12.13663300000000	-51.26624400000000	756.69488999999999	44.01829900000000	0.14174700000000	0.00000000000000	0.08092500000000	-7.43699700000000	155.55024000000000	7.13324400000000	0.40528700000000	0.00000000000000	-0.11365100000000	0.00000000000000	20.68296000000000	0.00000000000000	0.00000000000000	4.99387100000000	0.00000000000000	
12.13829100000000	-51.79123300000000	751.82713799999999	43.45371800000000	0.14098900000000	0.00000000000000	0.08077300000000	-6.77874400000000	162.12991299999999	6.95372000000000	0.40621600000000	0.00000000000000	-0.11384200000000	0.00000000000000	20.50141800000000	0.00000000000000	0.00000000000000	5.02952700000000	0.00000000000000	
12.13996100000000	-52.32906300000000	746.82207300000005	42.86757700000000	0.14024300000000	0.00000000000000	0.08061700000000	-6.08535600000000	168.83639099999999	6.74860000000000	0.40714800000000	0.00000000000000	-0.11402600000000	0.00000000000000	20.31888500000000	0.00000000000000	0.00000000000000	5.05398900000000	0.00000000000000	
12.14162600000000	-52.87891200000000	741.67970300000002	42.26029300000000	0.13951000000000	0.00000000000000	0.08045600000000	-5.35331300000000	175.65122199999999	6.51549900000000	0.40808400000000	0.00000000000000	-0.11420300000000	0.00000000000000	20.13544100000000	0.00000000000000	0.00000000000000	5.06585400000000	0.00000000000000	
12.14329000000000	-53.43985400000000	736.40005299999996	41.63233100000000	0.13879000000000	0.00000000000000	0.08029000000000	-4.57918700000000	182.55471100000000	6.25203600000000	0.40902300000000	0.00000000000000	-0.11437400000000	0.00000000000000	19.95115500000000	0.00000000000000	0.00000000000000	5.06368400000000	0.00000000000000	
12.14495900000000	-54.01086000000000	730.98316199999999	40.98420600000000	0.13808400000000	0.00000000000000	0.08012000000000	-3.75997900000000	189.52723200000000	5.95600800000000	0.40996500000000	0.00000000000000	-0.11453900000000	0.00000000000000	19.76608700000000	0.00000000000000	0.00000000000000	5.04608800000000	0.00000000000000	
12.14662300000000	-54.59079700000000	725.42909499999996	40.31647800000000	0.13739300000000	0.00000000000000	0.07994400000000	-2.89337100000000	196.55026799999999	5.62551400000000	0.41090600000000	0.00000000000000	-0.11469900000000	0.00000000000000	19.58028100000000	0.00000000000000	0.00000000000000	5.01178200000000	0.00000000000000	
12.14829500000000	-55.17843400000000	719.73793999999998	39.62975800000000	0.13671700000000	0.00000000000000	0.07976400000000	-1.97787800000000	203.60717900000000	5.25904400000000	0.41184800000000	0.00000000000000	-0.11485500000000	0.00000000000000	19.39377200000000	0.00000000000000	0.00000000000000	4.95963100000000	0.00000000000000	
